<svg width="105" height="108" viewBox="0 0 105 108" fill="none" xmlns="http://www.w3.org/2000/svg">
<rect y="2.5" width="105" height="105" rx="5" fill="#21CAFF"/>
<path d="M40.41 23.93L52.11 24.2L63.63 23.93C63.75 24.29 63.81 24.74 63.81 25.28L63.63 26.72C60.99 26.72 58.98 26.81 57.6 26.99C56.58 27.11 56.07 33.86 56.07 47.24V61.91C56.07 67.61 56.19 73.07 56.43 78.29C56.73 83.51 57.09 86.15 57.51 86.21C59.07 86.39 61.71 86.48 65.43 86.48C65.55 86.9 65.61 87.38 65.61 87.92C65.61 88.46 65.55 88.91 65.43 89.27L54 89C47.7 89 42.54 89.24 38.52 89.72C38.22 89.42 38.07 88.91 38.07 88.19L38.16 87.47C42.06 86.63 44.46 85.64 45.36 84.5C45.9 83.78 46.26 83.15 46.44 82.61C46.62 82.07 46.77 81.23 46.89 80.09C47.61 75.41 47.97 67.82 47.97 57.32V47.24C47.97 33.86 47.46 27.11 46.44 26.99C45.06 26.81 43.05 26.72 40.41 26.72C40.29 26.3 40.23 25.82 40.23 25.28C40.23 24.74 40.29 24.29 40.41 23.93Z" fill="white"/>
</svg>
